<?xml version="1.0" encoding="UTF-8" standalone="no"?>
<!-- Created with Inkscape (http://www.inkscape.org/) -->

<svg
   xmlns:osb="http://www.openswatchbook.org/uri/2009/osb"
   xmlns:dc="http://purl.org/dc/elements/1.1/"
   xmlns:cc="http://creativecommons.org/ns#"
   xmlns:rdf="http://www.w3.org/1999/02/22-rdf-syntax-ns#"
   xmlns:svg="http://www.w3.org/2000/svg"
   xmlns="http://www.w3.org/2000/svg"
   xmlns:sodipodi="http://sodipodi.sourceforge.net/DTD/sodipodi-0.dtd"
   xmlns:inkscape="http://www.inkscape.org/namespaces/inkscape"
   width="110.04379mm"
   height="31.219231mm"
   viewBox="0 0 110.04379 31.21923"
   version="1.1"
   id="svg8"
   inkscape:version="0.92.4 (5da689c313, 2019-01-14)"
   sodipodi:docname="HGS_v0.svg"
   inkscape:export-filename="D:\OneDrive - UNSW\papers\# in preparation\0 EMS HydroGeoSines\logo\HGS_v0.png"
   inkscape:export-xdpi="300"
   inkscape:export-ydpi="300">
  <defs
     id="defs2">
    <linearGradient
       id="linearGradient905"
       osb:paint="solid">
      <stop
         style="stop-color:#fffffb;stop-opacity:1;"
         offset="0"
         id="stop903" />
    </linearGradient>
  </defs>
  <sodipodi:namedview
     id="base"
     pagecolor="#ffffff"
     bordercolor="#666666"
     borderopacity="1.0"
     inkscape:pageopacity="0.0"
     inkscape:pageshadow="2"
     inkscape:zoom="2"
     inkscape:cx="-18.397172"
     inkscape:cy="106.65462"
     inkscape:document-units="mm"
     inkscape:current-layer="layer1"
     showgrid="false"
     fit-margin-top="0"
     fit-margin-left="-0.3"
     fit-margin-right="0"
     fit-margin-bottom="0"
     inkscape:window-width="2400"
     inkscape:window-height="1271"
     inkscape:window-x="4791"
     inkscape:window-y="-9"
     inkscape:window-maximized="1" />
  <metadata
     id="metadata5">
    <rdf:RDF>
      <cc:Work
         rdf:about="">
        <dc:format>image/svg+xml</dc:format>
        <dc:type
           rdf:resource="http://purl.org/dc/dcmitype/StillImage" />
        <dc:title />
      </cc:Work>
    </rdf:RDF>
  </metadata>
  <g
     inkscape:label="Layer 1"
     inkscape:groupmode="layer"
     id="layer1"
     transform="translate(-22.115836,-26.77539)">
    <path
       style="fill:#c8beb7;fill-opacity:1;fill-rule:evenodd;stroke-width:0.99999994"
       d="m 126.72852,-0.49023438 c -28.423057,0 -41.723477,2.93208368 -58.562504,6.64257818 C 51.632715,9.7964666 33.108392,13.863084 0.20507812,14.740234 V 82.689453 H 1.0371094 c 0.7696743,2.425731 3.0386681,4.185547 5.71875,4.185547 10.1359936,0 14.8797616,4.341894 20.8847656,9.837891 6.650993,6.087989 14.190236,12.986329 28.990234,12.986329 14.799001,0 22.336329,-6.89834 28.986329,-12.986329 6.005,-5.495997 10.74876,-9.837891 20.884762,-9.837891 10.135,0 14.87685,4.341894 20.88086,9.837891 6.64999,6.087989 14.18638,12.986329 28.98438,12.986329 14.8,0 22.33827,-6.89834 28.98828,-12.986329 6.00498,-5.495997 10.7468,-9.837891 20.88281,-9.837891 10.13701,0 14.88173,4.341894 20.88672,9.837891 6.65103,6.087989 14.18634,12.986329 28.98633,12.986329 14.80003,0 22.33828,-6.89834 28.98828,-12.986329 6.00597,-5.495997 10.74972,-9.837891 20.88672,-9.837891 10.13699,0 14.88169,4.342857 20.88672,9.839844 6.65098,6.086996 14.18927,12.984376 28.98828,12.984376 14.80199,0 22.33925,-6.89738 28.99023,-12.984376 6.00703,-5.496987 10.75163,-9.839844 20.89063,-9.839844 2.68002,0 4.94905,-1.759835 5.71875,-4.185547 h 1.39258 V -0.4296875 c -2.06916,-0.0356437 -4.19403,-0.0605469 -6.44336,-0.0605469 -28.42311,0 -41.72354,2.9320837 -58.5625,6.6425782 -18.64774,4.1101642 -39.78542,8.7675782 -81.28711,8.7675782 -41.49609,0 -62.62767,-4.657414 -81.27539,-8.7675782 -16.83624,-3.7104945 -30.1364,-6.6425782 -58.55664,-6.64257818 z"
       transform="matrix(0.26458333,0,0,0.26458333,22.403329,28.405224)"
       id="rect4562"
       inkscape:connector-curvature="0"
       sodipodi:nodetypes="sccccscscscscscscscscscccscscs" />
    <text
       xml:space="preserve"
       style="font-style:normal;font-weight:normal;font-size:13.91627884px;line-height:1.25;font-family:sans-serif;letter-spacing:0px;word-spacing:0px;fill:#ffffff;fill-opacity:1;stroke:#fffffb;stroke-width:0.6;stroke-miterlimit:4;stroke-dasharray:none;stroke-opacity:1"
       x="23.331276"
       y="46.091591"
       id="text4520"><tspan
         sodipodi:role="line"
         id="tspan4518"
         x="23.331276"
         y="46.091591"
         style="fill:#ffffff;stroke:#fffffb;stroke-width:0.6;stroke-miterlimit:4;stroke-dasharray:none;stroke-opacity:1">HydroGeo<tspan
   style="fill:#808080;stroke-width:0.6;stroke-miterlimit:4;stroke-dasharray:none"
   id="tspan1005">Sines</tspan></tspan></text>
    <path
       inkscape:connector-curvature="0"
       d="m 116.5582,57.494621 c -3.91557,0 -5.91,-1.82536 -7.66974,-3.43588 -1.58883,-1.45441 -2.84401,-2.60323 -5.52609,-2.60323 -2.68208,0 -3.937268,1.14882 -5.526347,2.60297 -1.759482,1.61078 -3.753911,3.43614 -7.669752,3.43614 -3.915828,0 -5.90999,-1.82536 -7.669742,-3.43614 -1.58882,-1.45415 -2.843742,-2.60297 -5.525823,-2.60297 -2.681819,0 -3.936741,1.14882 -5.525558,2.60297 -1.759482,1.61078 -3.753909,3.43614 -7.669742,3.43614 -3.915304,0 -5.909204,-1.82536 -7.668683,-3.43614 -1.588559,-1.45415 -2.843477,-2.60297 -5.525029,-2.60297 -2.681817,0 -3.936736,1.14882 -5.525559,2.60297 -1.759479,1.61078 -3.753908,3.43614 -7.669477,3.43614 -3.915833,0 -5.910263,-1.82536 -7.670006,-3.43614 -1.588823,-1.45415 -2.844007,-2.60297 -5.525823,-2.60297 -0.876565,0 -1.5875,-0.71094 -1.5875,-1.5875 0,-0.8771 0.710935,-1.5875 1.5875,-1.5875 3.915568,0 5.909998,1.82536 7.669741,3.43588 1.588824,1.45441 2.844007,2.60323 5.526088,2.60323 2.681817,0 3.936736,-1.14882 5.525558,-2.60323 1.75948,-1.61052 3.753909,-3.43588 7.669478,-3.43588 3.915304,0 5.909468,1.82536 7.668947,3.43614 1.588559,1.45415 2.843213,2.60297 5.524765,2.60297 2.682081,0 3.937,-1.14882 5.52582,-2.60323 1.75948,-1.61052 3.753911,-3.43588 7.66948,-3.43588 3.915833,0 5.910006,1.82536 7.669744,3.43588 1.588821,1.45441 2.844012,2.60323 5.525821,2.60323 2.682351,0 3.93727,-1.14882 5.52609,-2.60323 1.759751,-1.61052 3.75417,-3.43588 7.670009,-3.43588 3.91583,0 5.91026,1.82536 7.67,3.43588 1.58883,1.45441 2.84375,2.60323 5.52583,2.60323 2.68261,0 3.93779,-1.14882 5.52714,-2.60323 1.75974,-1.61052 3.75444,-3.43588 7.67054,-3.43588 0.87656,0 1.5875,0.7104 1.5875,1.5875 0,0.87656 -0.71094,1.5875 -1.5875,1.5875 -2.68261,0 -3.9378,1.14882 -5.52715,2.60323 -1.75974,1.61052 -3.75417,3.43588 -7.67053,3.43588 z"
       id="path18-8-4-6-2"
       style="fill:none;fill-opacity:0.90196078;stroke:#fffffb;stroke-width:1;stroke-miterlimit:3.70000005;stroke-dasharray:none;stroke-opacity:1" />
    <text
       xml:space="preserve"
       style="font-style:normal;font-weight:normal;font-size:13.91627884px;line-height:1.25;font-family:sans-serif;letter-spacing:0px;word-spacing:0px;fill:#1009ea;fill-opacity:1;stroke:none;stroke-width:0.5;stroke-miterlimit:4;stroke-dasharray:none;stroke-opacity:1;"
       x="23.331276"
       y="46.091591"
       id="text4520-0"><tspan
         sodipodi:role="line"
         id="tspan4518-1"
         x="23.331276"
         y="46.091591"
         style="fill:#1009ea;fill-opacity:1;stroke:none;stroke-width:0.5;stroke-miterlimit:4;stroke-dasharray:none;stroke-opacity:1;"><tspan
           style="fill:#4a88d9;fill-opacity:1"
           id="tspan826">Hydro</tspan><tspan
           style="fill:#f25c05;fill-opacity:1"
           id="tspan1009">Geo</tspan><tspan
           style="fill:#63a633;fill-opacity:1"
           id="tspan1011">Sines</tspan></tspan></text>
    <path
       inkscape:connector-curvature="0"
       d="m 116.5582,57.494621 c -3.91557,0 -5.91,-1.82536 -7.66974,-3.43588 -1.58883,-1.45441 -2.84401,-2.60323 -5.52609,-2.60323 -2.68208,0 -3.937268,1.14882 -5.526347,2.60297 -1.759482,1.61078 -3.753911,3.43614 -7.669752,3.43614 -3.915828,0 -5.90999,-1.82536 -7.669742,-3.43614 -1.58882,-1.45415 -2.843742,-2.60297 -5.525823,-2.60297 -2.681819,0 -3.936741,1.14882 -5.525558,2.60297 -1.759482,1.61078 -3.753909,3.43614 -7.669742,3.43614 -3.915304,0 -5.909204,-1.82536 -7.668683,-3.43614 -1.588559,-1.45415 -2.843477,-2.60297 -5.525029,-2.60297 -2.681817,0 -3.936736,1.14882 -5.525559,2.60297 -1.759479,1.61078 -3.753908,3.43614 -7.669477,3.43614 -3.915833,0 -5.910263,-1.82536 -7.670006,-3.43614 -1.588823,-1.45415 -2.844007,-2.60297 -5.525823,-2.60297 -0.876565,0 -1.5875,-0.71094 -1.5875,-1.5875 0,-0.8771 0.710935,-1.5875 1.5875,-1.5875 3.915568,0 5.909998,1.82536 7.669741,3.43588 1.588824,1.45441 2.844007,2.60323 5.526088,2.60323 2.681817,0 3.936736,-1.14882 5.525558,-2.60323 1.75948,-1.61052 3.753909,-3.43588 7.669478,-3.43588 3.915304,0 5.909468,1.82536 7.668947,3.43614 1.588559,1.45415 2.843213,2.60297 5.524765,2.60297 2.682081,0 3.937,-1.14882 5.52582,-2.60323 1.75948,-1.61052 3.753911,-3.43588 7.66948,-3.43588 3.915833,0 5.910006,1.82536 7.669744,3.43588 1.588821,1.45441 2.844012,2.60323 5.525821,2.60323 2.682351,0 3.93727,-1.14882 5.52609,-2.60323 1.759751,-1.61052 3.75417,-3.43588 7.670009,-3.43588 3.91583,0 5.91026,1.82536 7.67,3.43588 1.58883,1.45441 2.84375,2.60323 5.52583,2.60323 2.68261,0 3.93779,-1.14882 5.52714,-2.60323 1.75974,-1.61052 3.75444,-3.43588 7.67054,-3.43588 0.87656,0 1.5875,0.7104 1.5875,1.5875 0,0.87656 -0.71094,1.5875 -1.5875,1.5875 -2.68261,0 -3.9378,1.14882 -5.52715,2.60323 -1.75974,1.61052 -3.75417,3.43588 -7.67053,3.43588 z"
       id="path18-8-4-6"
       style="fill:#4a88d9;fill-opacity:0.90196079;stroke:none;stroke-width:1;stroke-miterlimit:3.70000005;stroke-dasharray:none;stroke-opacity:1" />
    <path
       style="color:#000000;font-style:normal;font-variant:normal;font-weight:normal;font-stretch:normal;font-size:medium;line-height:normal;font-family:sans-serif;font-variant-ligatures:normal;font-variant-position:normal;font-variant-caps:normal;font-variant-numeric:normal;font-variant-alternates:normal;font-feature-settings:normal;text-indent:0;text-align:start;text-decoration:none;text-decoration-line:none;text-decoration-style:solid;text-decoration-color:#000000;letter-spacing:normal;word-spacing:normal;text-transform:none;writing-mode:lr-tb;direction:ltr;text-orientation:mixed;dominant-baseline:auto;baseline-shift:baseline;text-anchor:start;white-space:normal;shape-padding:0;clip-rule:nonzero;display:inline;overflow:visible;visibility:visible;opacity:1;isolation:auto;mix-blend-mode:normal;color-interpolation:sRGB;color-interpolation-filters:linearRGB;solid-color:#000000;solid-opacity:1;vector-effect:none;fill:#1dc25d;fill-opacity:1;fill-rule:evenodd;stroke:#ffffff;stroke-width:1;stroke-linecap:butt;stroke-linejoin:miter;stroke-miterlimit:4;stroke-dasharray:none;stroke-dashoffset:0;stroke-opacity:1;color-rendering:auto;image-rendering:auto;shape-rendering:auto;text-rendering:auto;enable-background:accumulate"
       d="m 55.933595,27.27539 c -7.58904,0 -11.253709,0.799525 -15.708986,1.78125 -4.134416,0.911272 -17.863281,2.253906 -17.863281,2.253906 l 0.191406,1.990234 c 0,0 13.487107,-1.273937 18.101563,-2.291015 4.455374,-0.981746 7.827803,-1.734375 15.279298,-1.734375 7.450741,0 10.822723,0.752632 15.277344,1.734375 4.933884,1.087482 10.666698,2.34375 21.720704,2.34375 11.055467,0 16.786767,-1.256258 21.720697,-2.34375 4.45536,-0.981746 7.82975,-1.734375 15.28125,-1.734375 0.5772,0 1.68946,0.01563 1.68946,0.01563 l 0.0293,-2 c 0,0 -1.10566,-0.01563 -1.71875,-0.01563 -7.58905,0 -11.25567,0.799525 -15.71093,1.78125 -4.93383,1.087469 -10.38518,2.296875 -21.291019,2.296875 -10.904355,0 -16.355192,-1.209396 -21.289063,-2.296875 -4.454554,-0.981728 -8.120682,-1.78125 -15.708985,-1.78125 z"
       id="rect4562-9-7"
       inkscape:connector-curvature="0" />
    <path
       style="color:#000000;font-style:normal;font-variant:normal;font-weight:normal;font-stretch:normal;font-size:medium;line-height:normal;font-family:sans-serif;font-variant-ligatures:normal;font-variant-position:normal;font-variant-caps:normal;font-variant-numeric:normal;font-variant-alternates:normal;font-feature-settings:normal;text-indent:0;text-align:start;text-decoration:none;text-decoration-line:none;text-decoration-style:solid;text-decoration-color:#000000;letter-spacing:normal;word-spacing:normal;text-transform:none;writing-mode:lr-tb;direction:ltr;text-orientation:mixed;dominant-baseline:auto;baseline-shift:baseline;text-anchor:start;white-space:normal;shape-padding:0;clip-rule:nonzero;display:inline;overflow:visible;visibility:visible;opacity:1;isolation:auto;mix-blend-mode:normal;color-interpolation:sRGB;color-interpolation-filters:linearRGB;solid-color:#000000;solid-opacity:1;vector-effect:none;fill:#63a633;fill-opacity:1;fill-rule:evenodd;stroke:none;stroke-width:2;stroke-linecap:butt;stroke-linejoin:miter;stroke-miterlimit:4;stroke-dasharray:none;stroke-dashoffset:0;stroke-opacity:1;color-rendering:auto;image-rendering:auto;shape-rendering:auto;text-rendering:auto;enable-background:accumulate"
       d="m 55.933594,27.275391 c -7.589039,0 -11.253708,0.799525 -15.708985,1.78125 -4.134416,0.911272 -17.863281,2.253906 -17.863281,2.253906 l 0.191406,1.990234 c 0,0 13.487107,-1.273937 18.101563,-2.291015 4.455374,-0.981746 7.827803,-1.734375 15.279297,-1.734375 7.450743,0 10.822723,0.752632 15.277344,1.734375 4.933883,1.087482 10.666698,2.34375 21.720703,2.34375 11.055469,0 16.786769,-1.256258 21.720699,-2.34375 4.45536,-0.981746 7.82975,-1.734375 15.28125,-1.734375 0.5772,0 1.68946,0.01563 1.68946,0.01563 l 0.0293,-2 c 0,0 -1.10566,-0.01563 -1.71875,-0.01563 -7.58905,0 -11.25567,0.799525 -15.71093,1.78125 -4.93383,1.087469 -10.38518,2.296875 -21.291019,2.296875 -10.904355,0 -16.355194,-1.209396 -21.289063,-2.296875 -4.454555,-0.981728 -8.120683,-1.78125 -15.708984,-1.78125 z"
       id="rect4562-9"
       inkscape:connector-curvature="0" />
  </g>
</svg>
